HIERARCHY
ROOT joint_Root
{
	OFFSET 0.0 0.0 0.0
	CHANNELS 6 Xposition Yposition Zposition Zrotation Xrotation Yrotation 
	JOINT Hips
	{
		OFFSET 4.5925 91.4895 -427.239
		CHANNELS 6 Xposition Yposition Zposition Zrotation Xrotation Yrotation 
		JOINT Spine
		{
			OFFSET 15.7357 0.0 0.0
			CHANNELS 6 Xposition Yposition Zposition Zrotation Xrotation Yrotation 
			JOINT Chest
			{
				OFFSET 8.98455 -0.406207 0.0
				CHANNELS 6 Xposition Yposition Zposition Zrotation Xrotation Yrotation 
				JOINT Neck
				{
					OFFSET 16.3773 0.0 0.0
					CHANNELS 6 Xposition Yposition Zposition Zrotation Xrotation Yrotation 
					JOINT Head
					{
						OFFSET 6.45672 0.0 0.0
						CHANNELS 6 Xposition Yposition Zposition Zrotation Xrotation Yrotation 
						End Site
						{
							OFFSET 0.0 0.0 0.0
						}
					}
				}
				JOINT Shoulder_L
				{
					OFFSET 12.9942 -0.242716 4.98039
					CHANNELS 6 Xposition Yposition Zposition Zrotation Xrotation Yrotation 
					JOINT UpperArm_L
					{
						OFFSET 5.34809 0.0 0.0
						CHANNELS 6 Xposition Yposition Zposition Zrotation Xrotation Yrotation 
						JOINT LowerArm_L
						{
							OFFSET 24.3286 1.87007e-05 0.0
							CHANNELS 6 Xposition Yposition Zposition Zrotation Xrotation Yrotation 
							JOINT Hand_L
							{
								OFFSET 22.2916 0.0 0.0
								CHANNELS 6 Xposition Yposition Zposition Zrotation Xrotation Yrotation 
								End Site
								{
									OFFSET 0.0 0.0 0.0
								}
							}
						}
					}
				}
				JOINT Shoulder_R
				{
					OFFSET 12.9945 -0.242716 -4.98039
					CHANNELS 6 Xposition Yposition Zposition Zrotation Xrotation Yrotation 
					JOINT UpperArm_R
					{
						OFFSET -5.34813 0.0 0.0
						CHANNELS 6 Xposition Yposition Zposition Zrotation Xrotation Yrotation 
						JOINT LowerArm_R
						{
							OFFSET -24.3289 0.000322201 0.0
							CHANNELS 6 Xposition Yposition Zposition Zrotation Xrotation Yrotation 
							JOINT Hand_R
							{
								OFFSET -22.2915 -0.000108084 0.0
								CHANNELS 6 Xposition Yposition Zposition Zrotation Xrotation Yrotation 
								End Site
								{
									OFFSET 0.0 0.0 0.0
								}
							}
						}
					}
				}
			}
		}
		JOINT UpperLeg_L
		{
			OFFSET -2.19248 -6.46944 0.0
			CHANNELS 6 Xposition Yposition Zposition Zrotation Xrotation Yrotation 
			JOINT LowerLeg_L
			{
				OFFSET 39.0811 0.0 -1.23785e-05
				CHANNELS 6 Xposition Yposition Zposition Zrotation Xrotation Yrotation 
				JOINT Foot_L
				{
					OFFSET 40.9854 0.0 -1.26872e-05
					CHANNELS 6 Xposition Yposition Zposition Zrotation Xrotation Yrotation 
					JOINT Toes_L
					{
						OFFSET 11.7543 0.0 0.0
						CHANNELS 6 Xposition Yposition Zposition Zrotation Xrotation Yrotation 
						End Site
						{
							OFFSET 0.0 0.0 0.0
						}
					}
				}
			}
		}
		JOINT UpperLeg_R
		{
			OFFSET -2.19251 6.46944 0.0
			CHANNELS 6 Xposition Yposition Zposition Zrotation Xrotation Yrotation 
			JOINT LowerLeg_R
			{
				OFFSET -39.0811 -0.00228153 -0.0401928
				CHANNELS 6 Xposition Yposition Zposition Zrotation Xrotation Yrotation 
				JOINT Foot_R
				{
					OFFSET -40.9854 0.0 0.0
					CHANNELS 6 Xposition Yposition Zposition Zrotation Xrotation Yrotation 
					JOINT Toes_R
					{
						OFFSET -11.7543 0.0 0.0
						CHANNELS 6 Xposition Yposition Zposition Zrotation Xrotation Yrotation 
						End Site
						{
							OFFSET 0.0 0.0 0.0
						}
					}
				}
			}
		}
	}
}
MOTION
Frames:	4
Frame Time:	0.0333333
0.000000 0.000000 0.000000 0.000000 0.000000 -0.000000 -0.770982 90.243500 -4.512600 89.398000 -1.185600 12.880800 15.735700 0.000005 -0.000001 91.053100 76.763000 -90.755900 8.984550 -0.406207 -0.000000 18.702800 0.505214 0.512716 16.377300 -0.000001 -0.000001 5.089360 -4.783800 1.285430 6.456720 -0.000001 -0.000000 -7.998860 -5.347710 5.039120 12.994200 -0.242716 4.980390 -89.665100 -1.059630 -72.461300 5.348090 -0.000007 -0.000001 -61.335500 -26.746000 -75.623300 24.328600 0.000019 0.000005 33.927200 3.940880 -84.166000 22.291600 -0.000001 0.000005 37.176400 4.683800 13.447600 12.994500 -0.242716 -4.980390 89.302700 9.856770 -85.933400 -5.348130 -0.000001 -0.000004 -54.308400 35.107600 -25.924800 -24.328900 0.000322 -0.000009 1.342490 3.665670 -20.145000 -22.291500 -0.000108 -0.000004 15.990100 5.410940 -3.296460 -2.192480 -6.469440 -0.000000 -174.437000 -10.907800 -2.463680 39.081100 -0.000007 -0.000012 -0.183569 0.263799 34.833100 40.985400 -0.000006 -0.000013 0.610482 6.021500 -69.372300 11.754300 -0.000000 0.000003 -0.000086 -0.000908 -16.612500 -2.192510 6.469440 -0.000001 174.170000 20.768000 179.348000 -39.081100 -0.002282 -0.040193 -0.172914 0.258661 34.263900 -40.985400 0.000008 0.000006 4.403850 11.235100 -70.438400 -11.754300 -0.000006 -0.000006 -0.003223 -0.043098 -18.325900
0.000000 0.000000 0.000000 0.000000 0.000000 -0.000000 -0.764444 90.247700 -4.547630 89.377500 -1.264720 12.924900 15.735700 0.000005 -0.000001 91.032000 76.759500 -90.737300 8.984550 -0.406207 -0.000000 18.710000 0.495551 0.509205 16.377300 -0.000001 -0.000001 5.072290 -4.617600 1.090630 6.456720 -0.000001 -0.000000 -8.099090 -5.205160 4.828510 12.994200 -0.242716 4.980390 -89.658800 -1.082890 -72.507400 5.348090 -0.000007 -0.000001 -57.670000 -25.430000 -75.932500 24.328600 0.000019 0.000005 35.135600 2.755990 -86.091100 22.291600 -0.000001 0.000005 36.816600 4.709540 12.985400 12.994500 -0.242716 -4.980390 89.312100 9.814880 -85.970800 -5.348130 -0.000001 -0.000004 -54.387300 35.096700 -25.879900 -24.328900 0.000322 -0.000009 1.334900 3.629460 -20.223800 -22.291500 -0.000108 -0.000004 16.007600 5.411170 -3.303900 -2.192480 -6.469440 -0.000000 -174.402000 -10.974000 -2.429950 39.081100 -0.000007 -0.000012 -0.179593 0.258125 34.829100 40.985400 -0.000006 -0.000013 0.614801 6.009410 -69.351500 11.754300 -0.000000 0.000003 -0.000079 -0.000845 -16.610100 -2.192510 6.469440 -0.000001 174.154000 20.816600 179.381000 -39.081100 -0.002282 -0.040193 -0.174359 0.261111 34.230300 -40.985400 0.000008 0.000006 4.368040 11.373600 -70.379000 -11.754300 -0.000006 -0.000006 -0.003223 -0.043104 -18.326200
0.000000 0.000000 0.000000 0.000000 0.000000 -0.000000 -0.759321 90.241200 -4.588170 89.353900 -1.311310 12.957400 15.735700 0.000005 -0.000001 90.941300 76.749500 -90.654000 8.984550 -0.406207 -0.000000 18.730600 0.454089 0.500949 16.377300 -0.000001 -0.000001 4.988200 -4.479970 0.863877 6.456720 -0.000001 -0.000000 -8.142880 -5.049430 4.672930 12.994200 -0.242716 4.980390 -89.620300 -1.212870 -72.613300 5.348090 -0.000007 -0.000001 -54.039100 -24.213800 -76.322900 24.328600 0.000019 0.000005 36.601600 1.542250 -87.924300 22.291600 -0.000001 0.000005 36.042200 4.741550 12.403500 12.994500 -0.242716 -4.980390 89.319400 9.797480 -86.006900 -5.348130 -0.000001 -0.000004 -54.446900 35.137000 -25.891900 -24.328900 0.000322 -0.000009 1.337130 3.640740 -20.197100 -22.291500 -0.000108 -0.000004 16.024100 5.413130 -3.368950 -2.192480 -6.469440 -0.000000 -174.374000 -10.995100 -2.448770 39.081100 -0.000007 -0.000012 -0.178113 0.255525 34.878600 40.985400 -0.000006 -0.000013 0.618681 6.000780 -69.347200 11.754300 -0.000000 0.000003 -0.000078 -0.000829 -16.609500 -2.192510 6.469440 -0.000001 174.166000 20.817700 179.376000 -39.081100 -0.002282 -0.040193 -0.178163 0.266488 34.251700 -40.985400 0.000008 0.000006 4.354320 11.409200 -70.357200 -11.754300 -0.000006 -0.000006 -0.003534 -0.046506 -18.464600
0.000000 0.000000 0.000000 0.000000 0.000000 -0.000000 -0.741674 90.239200 -4.628930 89.361400 -1.400010 13.035800 15.735700 0.000005 -0.000001 90.819800 76.725200 -90.547300 8.984550 -0.406207 -0.000000 18.780200 0.398402 0.480463 16.377300 -0.000001 -0.000001 4.928380 -4.346500 0.602425 6.456720 -0.000001 -0.000000 -8.187060 -4.903140 4.478150 12.994200 -0.242716 4.980390 -89.588700 -1.315750 -72.640100 5.348090 -0.000007 -0.000001 -50.575500 -23.015700 -76.876400 24.328600 0.000019 0.000005 38.911900 0.409418 -89.492500 22.291600 -0.000001 0.000005 35.437200 4.762970 12.008500 12.994500 -0.242716 -4.980390 89.334400 9.788080 -86.090600 -5.348130 -0.000001 -0.000004 -54.451600 35.255900 -25.926500 -24.328900 0.000322 -0.000009 1.347720 3.676620 -20.161800 -22.291500 -0.000108 -0.000004 16.017500 5.410470 -3.280770 -2.192480 -6.469440 -0.000000 -174.368000 -11.023400 -2.385440 39.081100 -0.000007 -0.000012 -0.182575 0.261851 34.886300 40.985400 -0.000006 -0.000013 0.616320 5.958790 -69.335000 11.754300 -0.000000 0.000003 -0.000080 -0.000850 -16.610300 -2.192510 6.469440 -0.000001 174.120000 20.811800 179.411000 -39.081100 -0.002282 -0.040193 -0.178955 0.267515 34.265300 -40.985400 0.000008 0.000006 4.323210 11.518100 -70.316100 -11.754300 -0.000006 -0.000006 -0.003204 -0.042886 -18.317300
